<?xml version="1.0" encoding="UTF-8" standalone="no"?><!DOCTYPE svg PUBLIC "-//W3C//DTD SVG 1.1//EN" "http://www.w3.org/Graphics/SVG/1.1/DTD/svg11.dtd"><svg width="100%" height="100%" viewBox="0 0 2724 403" version="1.1" xmlns="http://www.w3.org/2000/svg" xmlns:xlink="http://www.w3.org/1999/xlink" xml:space="preserve" xmlns:serif="http://www.serif.com/" style="fill-rule:evenodd;clip-rule:evenodd;stroke-linejoin:round;stroke-miterlimit:2;"><path d="M1495.863,64.563l15.292,0l0,-12.142l-15.292,0l0,12.142Zm0,283.971l15.292,0l0,-202.158l-15.292,0l0,202.158Zm65.092,49.792l-114.883,0l0,-395.696l114.883,0l0,395.696Z" style="fill:url(#_Linear1);fill-rule:nonzero;"/><path d="M106.783,98.417c-75.85,0 -106.783,29.571 -106.783,102.054c0,44.875 12.188,70.571 34.787,84.808l-31.637,0l0,114.879l395.996,0c46.529,0 79.35,-6.8 99.025,-40.429c9.712,-16.183 11.429,-32.258 11.429,-60.054c0,-43.446 -5.467,-72.663 -32.942,-91.629l23.496,0l0,-109.629l-393.371,0Zm-47.021,143.283c-4.646,-3.796 -9.967,-11.917 -9.967,-41.229c0,-22.188 3.237,-36.029 9.904,-42.317c7.087,-6.687 22.492,-9.937 47.083,-9.937l343.575,0l0,10.033l-380.546,0l0,80.242l311.687,-0.004c35.296,0.458 55.629,3.517 65.808,9.829c6.142,3.867 12.496,7.867 12.496,51.358c0,23.154 -1.396,29.55 -4.467,34.667c-4.604,7.879 -9.375,16.025 -56.192,16.025l-346.204,0l-0,-15.296l385.796,0l0,-83.383l-320.933,0c-30.854,0 -49.833,-3.262 -58.042,-9.987Z" style="fill:url(#_Linear2);fill-rule:nonzero;"/><path d="M588.913,98.417c-63.192,0 -99.433,33.758 -99.433,92.608l0,105.504c0,65.858 36.438,103.629 99.958,103.629l415.942,0l0,-98.675l5.246,0l0,-91.562c0,-36.842 -3.692,-58.263 -12.725,-73.758c-19.617,-35.108 -58.729,-37.746 -116.1,-37.746l-292.887,0Zm-49.638,198.113l0,-105.504c0,-26.433 8.304,-42.808 49.638,-42.808l292.887,0c60.917,0 68.958,5.583 72.688,12.333l0.358,0.621c3.975,6.725 5.988,23.129 5.988,48.75l0,41.767l-396.292,0l0,82.858l391.046,0l0,15.821l-366.15,0c-36.096,0 -50.162,-15.096 -50.162,-53.837Zm24.742,-54.888l375.75,0l0,-83.388l-375.75,0l0,83.388Z" style="fill:url(#_Linear3);fill-rule:nonzero;"/><path d="M992.967,101.046l0,299.113l122.229,0l0,-189.483l236.271,0l0,44.092l120.133,0l0,-46.421c0,-90.708 -45.867,-107.3 -136.179,-107.3l-342.454,0Zm49.792,49.792l292.663,0c27.667,0 61.158,1.288 74.658,11.304c5.596,4.15 11.308,12.542 11.704,42.829l-20.521,0l0,-44.088l-335.867,0l0,186.858l-22.637,0l0,-196.904Z" style="fill:url(#_Linear4);fill-rule:nonzero;"/><path d="M1643.725,96.583c-64.925,0 -97.85,33.983 -97.85,101.004l0,103.929c0,85.804 60.992,96.804 114.129,96.804l321.75,0c67.321,0 97.337,-29.858 97.337,-96.804l0,-106.554c0,-86.462 -56.875,-98.379 -118.325,-98.379l-317.042,0Zm-48.058,204.933l0,-103.929c0,-39.721 10.779,-51.213 48.058,-51.213l317.042,0c29.763,0 48.65,3.462 57.729,10.579c5.029,3.946 10.8,11.825 10.8,38.008l0,106.554c0,39.542 -7.546,47.012 -47.542,47.012l-321.75,0c-61.475,0 -64.337,-16.121 -64.337,-47.012Zm23.167,36.967l387.821,0l0,-176.813l-387.821,0l0,176.813Zm49.792,-127.021l288.238,0l0,77.229l-288.238,0l0,-77.229Z" style="fill:url(#_Linear5);fill-rule:nonzero;"/><path d="M2194.142,-0l-39.3,116.983l105.192,0l110.583,-116.983l-176.475,0Zm35.796,49.796l25.087,0l-16.442,17.392l-14.487,0l5.842,-17.392Z" style="fill:url(#_Linear6);fill-rule:nonzero;"/><path d="M2320.679,101.046c-75.838,0 -106.775,29.567 -106.775,102.054c0,44.871 12.188,70.567 34.787,84.804l-64.912,1.013l0,111.242l429.271,2.625c46.525,0 79.35,-6.804 99.025,-40.425c9.713,-16.188 11.421,-32.263 11.421,-60.054c0,-43.45 -5.463,-72.662 -32.933,-91.633l23.488,0l0,-109.625l-393.371,0Zm-47.017,143.283c-4.642,-3.796 -9.967,-11.917 -9.967,-41.229c0,-22.192 3.238,-36.033 9.904,-42.317c7.092,-6.692 22.492,-9.946 47.079,-9.946l343.579,0l0,10.042l-380.546,0l0,80.237l311.688,0c35.3,0.454 55.633,3.513 65.808,9.825c6.142,3.867 12.496,7.867 12.496,51.363c0,23.146 -1.396,29.55 -4.467,34.662c-4.608,7.875 -9.379,16.025 -56.188,16.025l-346.204,0l0,-15.292l385.792,0l0,-83.383l-320.933,0c-30.846,0 -49.833,-3.271 -58.042,-9.987Z" style="fill:url(#_Linear7);fill-rule:nonzero;"/><path d="M1538.046,367.246l-65.087,0l0,-251.946l65.087,0l0,251.946Zm-65.092,-345.904l65.087,0l0,61.933l-65.087,0l0,-61.933Z" style="fill-rule:nonzero;"/><path d="M2062.075,400.158l121.704,0l0,-399.371l-121.704,0l0,399.371Zm49.796,-349.579l22.113,0l0,299.787l-22.113,0l0,-299.787Z" style="fill:url(#_Linear8);fill-rule:nonzero;"/><path d="M477.24,176.974l-380.546,0l0,30.446l287.113,0c40.417,0.525 63.512,4.192 78.738,13.646c18.367,11.55 24.142,28.867 24.142,72.433c0,25.721 -1.571,36.742 -7.875,47.242c-12.592,21.521 -32.017,28.342 -77.679,28.342l-371.1,0l0,-65.088l385.796,0l0,-33.592l-296.037,0c-72.963,0 -92.904,-16.271 -92.904,-76.108c0,-58.262 19.942,-77.158 81.879,-77.158l368.475,0l0,59.838Z" style="fill-rule:nonzero;"/><path d="M916.858,176.975l-325.958,0l0,33.592l325.958,0l0,-33.592Zm-325.433,93.429l0,33.067l391.046,0l0,65.612l-391.046,0c-49.867,0 -75.058,-26.246 -75.058,-78.733l0,-105.504c0,-45.138 24.671,-67.712 74.533,-67.712l292.892,0c62.983,0 83.454,5.25 94.475,25.196c6.825,11.55 9.45,30.446 9.45,61.413l0,66.662l-396.292,0Z" style="fill-rule:nonzero;"/><path d="M1337.407,119.76c90.283,0 111.279,15.746 111.279,82.404l0,21.525l-70.338,0l0,-44.092l-286.067,0l0,186.863l-72.433,0l0,-246.7l317.558,0Z" style="fill-rule:nonzero;"/><path d="M1983.742,180.388l-338.029,0l0,127.017l338.029,0l0,-127.017Zm-321.75,186.858c-65.612,0 -89.233,-18.892 -89.233,-71.908l0,-103.929c0,-53.538 21.521,-76.108 72.954,-76.108l317.038,0c70.333,0 93.433,17.846 93.433,73.483l0,106.554c0,53.538 -18.896,71.908 -72.442,71.908l-321.75,0Z" style="fill-rule:nonzero;"/><rect x="2088.958" y="19.508" width="71.912" height="349.575"/><path d="M2214.025,18.718l100.779,0l-63.512,67.188l-59.838,0l22.571,-67.188Z" style="fill-rule:nonzero;"/><path d="M2684.785,179.594l-380.542,0l0,30.446l287.108,0c40.417,0.529 63.513,4.196 78.738,13.65c18.371,11.546 24.146,28.867 24.146,72.433c0,25.721 -1.575,36.738 -7.875,47.242c-12.596,21.521 -32.021,28.342 -77.683,28.342l-371.096,0l0,-65.087l385.796,0l0,-33.592l-296.042,0c-72.963,0 -92.904,-16.271 -92.904,-76.108c0,-58.263 19.942,-77.158 81.879,-77.158l368.475,0l0,59.833Z" style="fill:#e20707;fill-rule:nonzero;"/><defs><linearGradient id="_Linear1" x1="0" y1="0" x2="1" y2="0" gradientUnits="userSpaceOnUse" gradientTransform="matrix(114.88061,0,0,114.88061,1446.070734,200.475733)"><stop offset="0" style="stop-color:#f2f2f2;stop-opacity:1"/><stop offset="0.12" style="stop-color:#808184;stop-opacity:1"/><stop offset="0.38" style="stop-color:#929497;stop-opacity:1"/><stop offset="0.57" style="stop-color:#d0d2d3;stop-opacity:1"/><stop offset="0.73" style="stop-color:#808184;stop-opacity:1"/><stop offset="0.87" style="stop-color:#e6e6e6;stop-opacity:1"/><stop offset="1" style="stop-color:#58595b;stop-opacity:1"/></linearGradient><linearGradient id="_Linear2" x1="0" y1="0" x2="1" y2="0" gradientUnits="userSpaceOnUse" gradientTransform="matrix(509.595808,0,0,509.595808,0.001398,249.288853)"><stop offset="0" style="stop-color:#f2f2f2;stop-opacity:1"/><stop offset="0.12" style="stop-color:#808184;stop-opacity:1"/><stop offset="0.38" style="stop-color:#929497;stop-opacity:1"/><stop offset="0.57" style="stop-color:#d0d2d3;stop-opacity:1"/><stop offset="0.73" style="stop-color:#808184;stop-opacity:1"/><stop offset="0.87" style="stop-color:#e6e6e6;stop-opacity:1"/><stop offset="1" style="stop-color:#58595b;stop-opacity:1"/></linearGradient><linearGradient id="_Linear3" x1="0" y1="0" x2="1" y2="0" gradientUnits="userSpaceOnUse" gradientTransform="matrix(521.144645,0,0,521.144645,489.481861,249.288853)"><stop offset="0" style="stop-color:#f2f2f2;stop-opacity:1"/><stop offset="0.12" style="stop-color:#808184;stop-opacity:1"/><stop offset="0.38" style="stop-color:#929497;stop-opacity:1"/><stop offset="0.57" style="stop-color:#d0d2d3;stop-opacity:1"/><stop offset="0.73" style="stop-color:#808184;stop-opacity:1"/><stop offset="0.87" style="stop-color:#e6e6e6;stop-opacity:1"/><stop offset="1" style="stop-color:#58595b;stop-opacity:1"/></linearGradient><linearGradient id="_Linear4" x1="0" y1="0" x2="1" y2="0" gradientUnits="userSpaceOnUse" gradientTransform="matrix(478.628699,0,0,478.628699,992.966969,250.601809)"><stop offset="0" style="stop-color:#f2f2f2;stop-opacity:1"/><stop offset="0.12" style="stop-color:#808184;stop-opacity:1"/><stop offset="0.38" style="stop-color:#929497;stop-opacity:1"/><stop offset="0.57" style="stop-color:#d0d2d3;stop-opacity:1"/><stop offset="0.73" style="stop-color:#808184;stop-opacity:1"/><stop offset="0.87" style="stop-color:#e6e6e6;stop-opacity:1"/><stop offset="1" style="stop-color:#58595b;stop-opacity:1"/></linearGradient><linearGradient id="_Linear5" x1="0" y1="0" x2="1" y2="0" gradientUnits="userSpaceOnUse" gradientTransform="matrix(533.220259,0,0,533.220259,1545.872878,247.453221)"><stop offset="0" style="stop-color:#f2f2f2;stop-opacity:1"/><stop offset="0.12" style="stop-color:#808184;stop-opacity:1"/><stop offset="0.38" style="stop-color:#929497;stop-opacity:1"/><stop offset="0.57" style="stop-color:#d0d2d3;stop-opacity:1"/><stop offset="0.73" style="stop-color:#808184;stop-opacity:1"/><stop offset="0.87" style="stop-color:#e6e6e6;stop-opacity:1"/><stop offset="1" style="stop-color:#58595b;stop-opacity:1"/></linearGradient><linearGradient id="_Linear6" x1="0" y1="0" x2="1" y2="0" gradientUnits="userSpaceOnUse" gradientTransform="matrix(215.772931,0,0,215.772931,2154.841485,58.49181)"><stop offset="0" style="stop-color:#f2f2f2;stop-opacity:1"/><stop offset="0.12" style="stop-color:#808184;stop-opacity:1"/><stop offset="0.38" style="stop-color:#929497;stop-opacity:1"/><stop offset="0.57" style="stop-color:#d0d2d3;stop-opacity:1"/><stop offset="0.73" style="stop-color:#808184;stop-opacity:1"/><stop offset="0.87" style="stop-color:#e6e6e6;stop-opacity:1"/><stop offset="1" style="stop-color:#58595b;stop-opacity:1"/></linearGradient><linearGradient id="_Linear7" x1="0" y1="0" x2="1" y2="0" gradientUnits="userSpaceOnUse" gradientTransform="matrix(539.720027,0,0,539.720027,2183.778507,251.9147)"><stop offset="0" style="stop-color:#f2f2f2;stop-opacity:1"/><stop offset="0.12" style="stop-color:#808184;stop-opacity:1"/><stop offset="0.38" style="stop-color:#929497;stop-opacity:1"/><stop offset="0.57" style="stop-color:#d0d2d3;stop-opacity:1"/><stop offset="0.73" style="stop-color:#808184;stop-opacity:1"/><stop offset="0.87" style="stop-color:#e6e6e6;stop-opacity:1"/><stop offset="1" style="stop-color:#58595b;stop-opacity:1"/></linearGradient><linearGradient id="_Linear8" x1="0" y1="0" x2="1" y2="0" gradientUnits="userSpaceOnUse" gradientTransform="matrix(121.704555,0,0,121.704555,2062.073897,200.473698)"><stop offset="0" style="stop-color:#f2f2f2;stop-opacity:1"/><stop offset="0.12" style="stop-color:#808184;stop-opacity:1"/><stop offset="0.38" style="stop-color:#929497;stop-opacity:1"/><stop offset="0.57" style="stop-color:#d0d2d3;stop-opacity:1"/><stop offset="0.73" style="stop-color:#808184;stop-opacity:1"/><stop offset="0.87" style="stop-color:#e6e6e6;stop-opacity:1"/><stop offset="1" style="stop-color:#58595b;stop-opacity:1"/></linearGradient></defs></svg>