<?xml version="1.0" encoding="UTF-8" standalone="no"?><!DOCTYPE svg PUBLIC "-//W3C//DTD SVG 1.1//EN" "http://www.w3.org/Graphics/SVG/1.1/DTD/svg11.dtd"><svg width="100%" height="100%" viewBox="0 0 200 200" version="1.1" xmlns="http://www.w3.org/2000/svg" xmlns:xlink="http://www.w3.org/1999/xlink" xml:space="preserve" xmlns:serif="http://www.serif.com/" style="fill-rule:evenodd;clip-rule:evenodd;stroke-linejoin:round;stroke-miterlimit:2;"><path d="M52.949,46.61c-26.837,0 -37.786,10.463 -37.786,36.115c0,15.879 4.313,24.972 12.311,30.011l-22.971,0.358l0,39.366l151.911,0.929c16.464,0 28.08,-2.408 35.043,-14.306c3.437,-5.728 4.042,-11.417 4.042,-21.252c0,-15.376 -1.933,-25.714 -11.654,-32.427l8.312,0l0,-38.794l-139.206,0Zm-16.638,50.705c-1.643,-1.343 -3.527,-4.217 -3.527,-14.59c0,-7.853 1.146,-12.751 3.505,-14.975c2.51,-2.368 7.959,-3.52 16.66,-3.52l121.586,0l0,3.554l-134.668,0l0,28.394l110.3,0c12.492,0.161 19.688,1.243 23.288,3.477c2.173,1.368 4.422,2.784 4.422,18.176c0,8.191 -0.494,10.457 -1.581,12.266c-1.631,2.787 -3.319,5.671 -19.884,5.671l-122.515,0l-0,-5.411l136.524,0l0,-29.508l-113.572,0c-10.916,0 -17.635,-1.157 -20.54,-3.534Z" style="fill:url(#_Linear1);fill-rule:nonzero;"/><path d="M181.798,74.407l-134.666,0l0,10.774l101.602,0c14.303,0.187 22.476,1.485 27.864,4.83c6.501,4.086 8.545,10.215 8.545,25.633c0,9.102 -0.557,13.001 -2.787,16.718c-4.457,7.616 -11.332,10.03 -27.491,10.03l-131.324,0l0,-23.033l136.526,0l0,-11.887l-104.763,0c-25.82,0 -32.877,-5.758 -32.877,-26.933c0,-20.618 7.057,-27.305 28.975,-27.305l130.396,0l0,21.174Z" style="fill:#e20707;fill-rule:nonzero;"/><defs><linearGradient id="_Linear1" x1="0" y1="0" x2="1" y2="0" gradientUnits="userSpaceOnUse" gradientTransform="matrix(190.996406,0,0,190.996406,4.502158,100.000041)"><stop offset="0" style="stop-color:#f2f2f2;stop-opacity:1"/><stop offset="0.12" style="stop-color:#808184;stop-opacity:1"/><stop offset="0.38" style="stop-color:#929497;stop-opacity:1"/><stop offset="0.57" style="stop-color:#d0d2d3;stop-opacity:1"/><stop offset="0.73" style="stop-color:#808184;stop-opacity:1"/><stop offset="0.87" style="stop-color:#e6e6e6;stop-opacity:1"/><stop offset="1" style="stop-color:#58595b;stop-opacity:1"/></linearGradient></defs></svg>